<?xml version="1.0" encoding="UTF-8"?>
<svg id="Layer_1" data-name="Layer 1" xmlns="http://www.w3.org/2000/svg" viewBox="0 0 549.85 181.01">
  <defs>
    <style>
      .cls-1 {
        fill: #fff;
        stroke-width: 0px;
      }
    </style>
  </defs>
  <g>
    <path class="cls-1" d="m0,0h33.68c18.32,0,31.94.25,42.84,8.42,9.41,6.93,15.6,20.8,15.6,37.89s-6.44,30.46-19.56,39.37c16.1,10.15,23.77,24.27,23.77,43.83,0,13.12-3.47,24.51-9.9,33.68-10.15,14.36-27.49,17.83-55.96,17.83H0V0Zm34.42,73.55c19.81,0,28.23-7.43,28.23-25.51,0-16.84-7.68-23.77-25.51-23.77-2.23,0-4.46,0-6.69.25v49.03h3.96Zm2.72,81.72c20.31,0,28.72-7.68,28.72-27.98s-8.17-27.73-27.24-27.73c-2.48,0-5.2.25-8.17.49v54.97c2.48.25,4.71.25,6.69.25Z"/>
    <path class="cls-1" d="m89.11,0h30.21v181.01h-30.21V0Z"/>
  </g>
  <g>
    <path class="cls-1" d="m160.98,27.49h-29.96V0h90.38v27.49h-29.96v153.53h-30.46V27.49Z"/>
    <path class="cls-1" d="m226.62,27.49h-37.15V0h97.57v27.49h-29.96v153.53h-30.46V27.49Z"/>
    <path class="cls-1" d="m284.59,0h27.73l35.16,96.57c2.23,6.44,5.2,17.09,8.17,32.69h.99c-2.72-15.85-3.96-28.23-3.96-36.65V0h26.5v181.01h-25.26l-37.64-104.25c-3.96-10.65-6.69-21.3-8.17-31.94h-.99c2.72,13.37,3.96,26.74,3.96,40.86v95.34h-26.5V0Z"/>
    <path class="cls-1" d="m356.07,0h82.95v28.23h-52.74v45.32h40.36v28.48h-40.36v50.52h55.96v28.48h-86.17V0Z"/>
  </g>
  <path class="cls-1" d="m519.39,181.01l-21.79-75.28c-3.96.5-8.42.74-12.63.74h-4.21v74.53h-30.46V0h40.11C507.5,0,520.63.74,532.27,9.66c10.4,8.17,17.58,24.02,17.58,43.58,0,22.04-8.42,38.13-24.76,47.79l24.76,79.98h-30.46Zm-31.7-99.3c22.29,0,31.2-8.17,31.2-29.71,0-19.56-8.91-27.73-29.22-27.73-2.72,0-5.7.25-8.91.5v56.71c2.48.25,4.71.25,6.93.25Z"/>
</svg>